HIERARCHY
ROOT Hips
{
	OFFSET 0.000000 100.481300 0.000000
	CHANNELS 6 Xposition Yposition Zposition Xrotation Yrotation Zrotation
	JOINT Spine
	{
		OFFSET -0.279200 12.230698 -2.892100
		CHANNELS 3 Xrotation Yrotation Zrotation
		JOINT Spine1
		{
			OFFSET -0.325700 14.269203 -3.374200
			CHANNELS 3 Xrotation Yrotation Zrotation
			JOINT Spine2
			{
				OFFSET -0.372300 16.307602 -0.352600
				CHANNELS 3 Xrotation Yrotation Zrotation
				JOINT Neck
				{
					OFFSET -0.418800 17.814194 8.416900
					CHANNELS 3 Xrotation Yrotation Zrotation
					JOINT Head
					{
						OFFSET 0.000000 7.031097 3.806800
						CHANNELS 3 Xrotation Yrotation Zrotation
						JOINT HeadTop_End
						{
							OFFSET 0.000000 24.646606 12.978600
							CHANNELS 3 Xrotation Yrotation Zrotation
							End Site
							{
								OFFSET 0.000000 27.854965 0.000000
							}
						}
					}
				}
				JOINT LeftShoulder
				{
					OFFSET 16.952999 14.495407 -7.737500
					CHANNELS 3 Xrotation Yrotation Zrotation
					JOINT LeftArm
					{
						OFFSET 9.308998 -2.777710 0.208600
						CHANNELS 3 Xrotation Yrotation Zrotation
						JOINT LeftForeArm
						{
							OFFSET 29.972298 0.000000 0.000000
							CHANNELS 3 Xrotation Yrotation Zrotation
							JOINT LeftHand
							{
								OFFSET 26.026505 0.000000 0.000000
								CHANNELS 3 Xrotation Yrotation Zrotation
								JOINT LeftHandThumb1
								{
									OFFSET 12.240501 -7.147949 9.207150
									CHANNELS 3 Xrotation Yrotation Zrotation
									JOINT LeftHandThumb2
									{
										OFFSET 4.138618 -2.389435 2.389433
										CHANNELS 3 Xrotation Yrotation Zrotation
										JOINT LeftHandThumb3
										{
											OFFSET 2.726913 -1.574387 1.574386
											CHANNELS 3 Xrotation Yrotation Zrotation
											JOINT LeftHandThumb4
											{
												OFFSET 3.941010 -2.275345 2.275342
												CHANNELS 3 Xrotation Yrotation Zrotation
												End Site
												{
													OFFSET -0.005798 5.087799 0.009903
												}
											}
										}
									}
								}
								JOINT LeftHandIndex1
								{
									OFFSET 24.424698 -1.985611 5.953459
									CHANNELS 3 Xrotation Yrotation Zrotation
									JOINT LeftHandIndex2
									{
										OFFSET 6.426697 0.000000 0.000000
										CHANNELS 3 Xrotation Yrotation Zrotation
										JOINT LeftHandIndex3
										{
											OFFSET 5.337898 0.000000 0.000000
											CHANNELS 3 Xrotation Yrotation Zrotation
											JOINT LeftHandIndex4
											{
												OFFSET 4.409401 0.000000 0.000000
												CHANNELS 3 Xrotation Yrotation Zrotation
												End Site
												{
													OFFSET 0.000000 4.409363 0.014373
												}
											}
										}
									}
								}
								JOINT LeftHandMiddle1
								{
									OFFSET 23.810104 0.000000 0.000000
									CHANNELS 3 Xrotation Yrotation Zrotation
									JOINT LeftHandMiddle2
									{
										OFFSET 7.176498 0.000000 0.000000
										CHANNELS 3 Xrotation Yrotation Zrotation
										JOINT LeftHandMiddle3
										{
											OFFSET 6.774902 0.000000 0.000000
											CHANNELS 3 Xrotation Yrotation Zrotation
											JOINT LeftHandMiddle4
											{
												OFFSET 5.403328 0.000000 0.000000
												CHANNELS 3 Xrotation Yrotation Zrotation
												End Site
												{
													OFFSET -0.027702 5.403244 0.017414
												}
											}
										}
									}
								}
								JOINT LeftHandRing1
								{
									OFFSET 22.908401 -0.839279 -6.020567
									CHANNELS 3 Xrotation Yrotation Zrotation
									JOINT LeftHandRing2
									{
										OFFSET 6.337502 0.000000 0.000000
										CHANNELS 3 Xrotation Yrotation Zrotation
										JOINT LeftHandRing3
										{
											OFFSET 5.779297 0.000000 0.000000
											CHANNELS 3 Xrotation Yrotation Zrotation
											JOINT LeftHandRing4
											{
												OFFSET 4.965698 0.000000 0.000000
												CHANNELS 3 Xrotation Yrotation Zrotation
												End Site
												{
													OFFSET 0.000000 4.965668 0.016186
												}
											}
										}
									}
								}
								JOINT LeftHandPinky1
								{
									OFFSET 20.037003 -1.530319 -10.950146
									CHANNELS 3 Xrotation Yrotation Zrotation
									JOINT LeftHandPinky2
									{
										OFFSET 5.254700 0.000000 0.000000
										CHANNELS 3 Xrotation Yrotation Zrotation
										JOINT LeftHandPinky3
										{
											OFFSET 4.810204 0.000000 0.000000
											CHANNELS 3 Xrotation Yrotation Zrotation
											JOINT LeftHandPinky4
											{
												OFFSET 3.647202 0.000000 0.000000
												CHANNELS 3 Xrotation Yrotation Zrotation
												End Site
												{
													OFFSET 0.000000 3.647186 0.011889
												}
											}
										}
									}
								}
							}
						}
					}
				}
				JOINT RightShoulder
				{
					OFFSET -15.141001 14.495407 -7.737500
					CHANNELS 3 Xrotation Yrotation Zrotation
					JOINT RightArm
					{
						OFFSET -9.308998 -2.777710 0.208500
						CHANNELS 3 Xrotation Yrotation Zrotation
						JOINT RightForeArm
						{
							OFFSET -29.972300 0.000000 0.000000
							CHANNELS 3 Xrotation Yrotation Zrotation
							JOINT RightHand
							{
								OFFSET -26.026505 0.000000 0.000000
								CHANNELS 3 Xrotation Yrotation Zrotation
								JOINT RightHandThumb1
								{
									OFFSET -12.240601 -7.148026 9.207092
									CHANNELS 3 Xrotation Yrotation Zrotation
									JOINT RightHandThumb2
									{
										OFFSET -4.138618 -2.389435 2.389433
										CHANNELS 3 Xrotation Yrotation Zrotation
										JOINT RightHandThumb3
										{
											OFFSET -2.726974 -1.574417 1.574421
											CHANNELS 3 Xrotation Yrotation Zrotation
											JOINT RightHandThumb4
											{
												OFFSET -3.941010 -2.275345 2.275343
												CHANNELS 3 Xrotation Yrotation Zrotation
												End Site
												{
													OFFSET 0.005814 5.087799 0.009927
												}
											}
										}
									}
								}
								JOINT RightHandIndex1
								{
									OFFSET -24.424698 -1.985657 5.953444
									CHANNELS 3 Xrotation Yrotation Zrotation
									JOINT RightHandIndex2
									{
										OFFSET -6.426697 0.000000 0.000000
										CHANNELS 3 Xrotation Yrotation Zrotation
										JOINT RightHandIndex3
										{
											OFFSET -5.337898 0.000000 0.000000
											CHANNELS 3 Xrotation Yrotation Zrotation
											JOINT RightHandIndex4
											{
												OFFSET -4.409401 0.000000 0.000000
												CHANNELS 3 Xrotation Yrotation Zrotation
												End Site
												{
													OFFSET 0.000000 4.409363 0.014408
												}
											}
										}
									}
								}
								JOINT RightHandMiddle1
								{
									OFFSET -23.810097 0.000000 0.000000
									CHANNELS 3 Xrotation Yrotation Zrotation
									JOINT RightHandMiddle2
									{
										OFFSET -7.176498 0.000000 0.000000
										CHANNELS 3 Xrotation Yrotation Zrotation
										JOINT RightHandMiddle3
										{
											OFFSET -6.774902 0.000000 0.000000
											CHANNELS 3 Xrotation Yrotation Zrotation
											JOINT RightHandMiddle4
											{
												OFFSET -5.403328 0.000000 0.000000
												CHANNELS 3 Xrotation Yrotation Zrotation
												End Site
												{
													OFFSET 0.027702 5.403244 0.017457
												}
											}
										}
									}
								}
								JOINT RightHandRing1
								{
									OFFSET -22.908302 -0.839325 -6.020576
									CHANNELS 3 Xrotation Yrotation Zrotation
									JOINT RightHandRing2
									{
										OFFSET -6.337502 0.000000 0.000000
										CHANNELS 3 Xrotation Yrotation Zrotation
										JOINT RightHandRing3
										{
											OFFSET -5.779297 0.000000 0.000000
											CHANNELS 3 Xrotation Yrotation Zrotation
											JOINT RightHandRing4
											{
												OFFSET -4.965698 0.000000 0.000000
												CHANNELS 3 Xrotation Yrotation Zrotation
												End Site
												{
													OFFSET 0.000000 4.965668 0.016226
												}
											}
										}
									}
								}
								JOINT RightHandPinky1
								{
									OFFSET -20.037003 -1.530334 -10.950259
									CHANNELS 3 Xrotation Yrotation Zrotation
									JOINT RightHandPinky2
									{
										OFFSET -5.254700 0.000000 0.000000
										CHANNELS 3 Xrotation Yrotation Zrotation
										JOINT RightHandPinky3
										{
											OFFSET -4.810204 0.000000 0.000000
											CHANNELS 3 Xrotation Yrotation Zrotation
											JOINT RightHandPinky4
											{
												OFFSET -3.647202 0.000000 0.000000
												CHANNELS 3 Xrotation Yrotation Zrotation
												End Site
												{
													OFFSET 0.000000 3.647186 0.011917
												}
											}
										}
									}
								}
							}
						}
					}
				}
			}
		}
	}
	JOINT LeftUpLeg
	{
		OFFSET 15.427100 -6.655098 0.678600
		CHANNELS 3 Xrotation Yrotation Zrotation
		JOINT LeftLeg
		{
			OFFSET 4.081073 -39.591068 13.024000
			CHANNELS 3 Xrotation Yrotation Zrotation
			JOINT LeftFoot
			{
				OFFSET -4.081074 -37.707932 -15.979700
				CHANNELS 3 Xrotation Yrotation Zrotation
				JOINT LeftToeBase
				{
					OFFSET 5.346399 -15.068900 20.645000
					CHANNELS 3 Xrotation Yrotation Zrotation
					JOINT LeftToe_End
					{
						OFFSET 2.754700 0.931300 11.300900
						CHANNELS 3 Xrotation Yrotation Zrotation
						End Site
						{
							OFFSET 0.000000 11.669021 0.000000
						}
					}
				}
			}
		}
	}
	JOINT RightUpLeg
	{
		OFFSET -15.569500 -6.655098 0.678600
		CHANNELS 3 Xrotation Yrotation Zrotation
		JOINT RightLeg
		{
			OFFSET -4.081825 -39.591045 13.023800
			CHANNELS 3 Xrotation Yrotation Zrotation
			JOINT RightFoot
			{
				OFFSET 4.081824 -37.707954 -15.979600
				CHANNELS 3 Xrotation Yrotation Zrotation
				JOINT RightToeBase
				{
					OFFSET -5.346400 -15.068900 20.645000
					CHANNELS 3 Xrotation Yrotation Zrotation
					JOINT RightToe_End
					{
						OFFSET -2.754700 0.931300 11.300900
						CHANNELS 3 Xrotation Yrotation Zrotation
						End Site
						{
							OFFSET 0.000000 11.669021 0.000000
						}
					}
				}
			}
		}
	}
}
MOTION
Frames: 4
Frame Time: 0.033333
1.030899 188.257019 -17.511391 62.292596 -15.049169 12.373222 -14.502175 2.304600 2.687120 -8.528651 2.231956 3.065698 -0.682158 2.392702 0.538784 0.419689 1.878771 -2.600342 3.877566 5.267545 1.917148 -0.000001 -0.000000 -0.000000 3.136917 -34.330447 3.468391 13.754949 -112.238368 89.182791 0.000001 -0.000002 -0.000000 -26.964841 9.712681 -4.371241 -2.067852 -8.739947 -19.887935 17.854145 51.505883 -4.077931 -20.240608 32.145223 35.972486 0.000002 -0.000003 -0.000001 2.908426 7.371623 -59.007206 5.579316 5.844757 -87.333196 2.890545 5.049056 -59.560172 -0.000002 -0.000002 -0.000002 3.790207 7.801282 -68.638907 4.178082 5.607578 -73.358547 3.481699 5.351387 -66.075373 0.000000 0.000001 -0.000002 5.212031 8.156501 -83.044220 5.446522 5.837121 -86.028500 5.624446 5.846664 -87.776530 0.000002 0.000001 0.000000 5.194561 8.154363 -82.871799 4.100365 5.583876 -72.561403 5.652336 5.847692 -88.050305 -0.000001 0.000000 -0.000000 4.952872 4.414736 -32.323269 -99.337540 52.996544 15.978201 -0.000008 32.064610 0.000011 -74.626756 -1.095352 -27.913033 17.318399 29.764363 -3.529758 32.546022 -39.943421 19.457539 14.497932 -36.641663 -2.844780 -0.000002 -0.000002 -0.000001 0.402537 -3.490836 66.763071 6.336291 -4.344542 111.155175 6.040627 -4.447378 107.298980 0.000001 -0.000001 -0.000000 5.730848 -7.212479 79.121608 5.363117 -4.603463 98.728165 5.428633 -4.592978 99.545417 0.000003 -0.000001 0.000000 9.093130 -7.261439 85.929305 5.645974 -4.551220 102.271230 5.291421 -4.613867 97.835773 0.000003 0.000002 0.000000 3.551251 -6.786517 75.603227 4.985300 -4.645617 94.044670 5.427163 -4.593200 99.527201 0.000003 0.000001 -0.000001 -19.731568 14.797106 6.711208 46.234520 3.801621 -10.382838 37.644164 -10.866372 -8.874875 6.055585 -0.000004 -0.000000 0.000004 -0.000000 0.000001 2.461152 -6.099362 -22.741238 55.192399 -0.437656 -3.704133 19.439845 5.774212 2.766114 -0.631310 -0.000004 0.000001 0.000000 0.000001 -0.000001 
1.600723 183.485565 -3.780220 59.715852 -16.758426 12.026778 -12.060128 2.566102 2.351523 -7.280191 2.173264 2.663082 -0.787803 2.307105 0.584268 0.021089 1.966147 -2.155820 4.308433 6.307816 1.601765 -0.000000 -0.000001 0.000000 3.136904 -34.330433 3.468381 40.407788 -115.622439 112.587561 0.000003 -24.500269 0.000001 -28.149728 19.425237 10.250073 -2.067854 -8.739942 -19.887921 17.854147 51.505859 -4.077929 -20.302905 32.308352 36.096023 0.000001 0.000001 -0.000001 2.908427 7.371620 -59.007213 5.579298 5.844750 -87.333196 2.890548 5.049056 -59.560172 -0.000002 0.000001 -0.000001 3.790209 7.801285 -68.638914 4.178092 5.607587 -73.358561 3.481702 5.351387 -66.075366 0.000000 -0.000001 0.000000 5.212027 8.156521 -83.044213 5.446518 5.837103 -86.028500 5.624436 5.846665 -87.776523 0.000002 0.000000 0.000001 5.194565 8.154364 -82.871819 4.100377 5.583885 -72.561389 5.652329 5.847713 -88.050270 0.000002 -0.000000 -0.000000 5.147894 3.757982 -32.110953 -101.447639 46.634134 17.774876 0.000017 44.119597 -0.000028 -71.619397 -1.156475 -26.323073 17.318372 29.764356 -3.529742 32.545998 -39.943411 19.457508 14.497923 -36.641670 -2.844800 -0.000002 -0.000004 -0.000003 0.391130 -3.486743 66.517279 6.336309 -4.344528 111.155141 6.040628 -4.447372 107.298966 -0.000004 -0.000000 0.000000 5.720495 -7.214587 79.001458 5.363110 -4.603457 98.728165 5.428636 -4.592979 99.545404 0.000001 -0.000002 -0.000000 9.074391 -7.277787 85.713997 5.645972 -4.551222 102.271216 5.291416 -4.613876 97.835766 -0.000002 -0.000003 -0.000002 3.534549 -6.782240 75.391041 4.985306 -4.645628 94.044670 5.427169 -4.593198 99.527208 0.000002 0.000002 -0.000001 -27.659811 16.144392 7.777859 53.329311 3.518164 -10.562449 33.847248 -12.078296 -8.665405 5.523894 -0.000002 -0.000008 -0.000003 0.000000 0.000000 -1.858343 -6.148427 -19.980825 60.755004 0.151938 -3.585998 15.265664 6.444795 5.229518 2.434518 -0.000003 0.000008 0.000002 -0.000001 -0.000001 
2.177319 178.225891 10.415298 56.391121 -17.670360 11.260593 -9.167036 2.742743 1.885463 -5.619767 2.045302 2.041350 -0.680313 2.134617 0.475178 0.264758 1.896449 -2.035814 4.616512 6.076437 1.974386 -0.000001 -0.000000 -0.000000 3.136891 -34.330430 3.468368 54.361254 -119.792297 123.858486 -0.000003 -42.538391 -0.000004 -29.761784 25.763573 23.705328 -2.067860 -8.739944 -19.887921 17.854145 51.505869 -4.077941 -20.481724 32.767798 36.461694 0.000003 0.000004 0.000000 2.908424 7.371617 -59.007200 5.579279 5.844761 -87.333196 2.890543 5.049060 -59.560185 0.000002 -0.000000 -0.000002 3.790201 7.801282 -68.638907 4.178109 5.607581 -73.358561 3.481699 5.351393 -66.075407 -0.000000 0.000000 -0.000002 5.212033 8.156516 -83.044220 5.446528 5.837113 -86.028487 5.624446 5.846664 -87.776530 -0.000003 0.000000 0.000000 5.194566 8.154356 -82.871799 4.100383 5.583875 -72.561409 5.652336 5.847696 -88.050284 0.000003 0.000000 -0.000000 5.882572 4.080910 -33.445223 -98.875663 40.504658 13.678345 -0.000007 55.016508 0.000003 -71.479405 -0.439173 -24.584144 17.318373 29.764383 -3.529738 32.545991 -39.943400 19.457515 14.497934 -36.641670 -2.844772 -0.000001 -0.000002 0.000002 0.378810 -3.482203 66.252398 6.336298 -4.344557 111.155134 6.040631 -4.447388 107.298980 0.000003 -0.000000 0.000000 5.709736 -7.216773 78.876636 5.363124 -4.603470 98.728165 5.428639 -4.592968 99.545404 0.000001 0.000000 -0.000001 9.054850 -7.294674 85.490179 5.645967 -4.551204 102.271209 5.291418 -4.613880 97.835773 0.000003 -0.000003 -0.000002 3.516579 -6.777537 75.162366 4.985312 -4.645631 94.044670 5.427176 -4.593200 99.527194 -0.000002 -0.000002 -0.000002 -35.780424 17.249878 8.917035 58.602948 3.663193 -10.338719 30.771095 -13.170964 -10.097433 5.263909 -0.000003 -0.000008 0.000002 0.000001 0.000002 -5.662135 -8.494012 -16.847251 64.330478 1.209431 -3.266973 11.937600 5.180561 8.606099 8.775593 0.000000 0.000002 -0.000001 -0.000001 0.000002 
2.842316 172.963120 25.776421 53.634815 -20.379107 11.851032 -6.213895 3.380985 0.773461 -4.046622 2.505272 1.575368 -0.684879 2.565079 0.496696 0.586304 1.735558 -1.340079 4.869670 6.221993 2.232751 0.000001 0.000000 -0.000000 3.136926 -34.330436 3.468391 57.474129 -120.939851 125.766800 -0.000022 -48.317510 -0.000029 -31.672209 26.377584 31.397765 -2.067872 -8.739943 -19.887935 17.854144 51.505869 -4.077903 -20.769844 33.491204 37.045232 -0.000002 0.000001 -0.000000 2.908414 7.371621 -59.007193 5.579294 5.844775 -87.333189 2.890549 5.049059 -59.560158 0.000001 -0.000000 -0.000002 3.790194 7.801290 -68.638900 4.178112 5.607580 -73.358554 3.481698 5.351381 -66.075393 0.000001 0.000000 0.000002 5.212024 8.156500 -83.044213 5.446507 5.837115 -86.028493 5.624435 5.846682 -87.776537 -0.000002 -0.000000 0.000000 5.194549 8.154374 -82.871805 4.100392 5.583894 -72.561389 5.652345 5.847692 -88.050291 -0.000002 0.000001 0.000000 6.564731 4.287088 -34.662725 -93.912089 37.930472 6.549214 0.000008 59.616439 -0.000012 -73.937617 1.228302 -22.734006 17.318392 29.764366 -3.529749 32.545985 -39.943387 19.457518 14.497915 -36.641663 -2.844789 0.000002 0.000001 -0.000001 0.365684 -3.477331 65.971575 6.336298 -4.344553 111.155147 6.040625 -4.447368 107.298987 0.000001 -0.000002 -0.000002 5.698636 -7.218980 78.747840 5.363127 -4.603466 98.728192 5.428643 -4.592964 99.545417 0.000004 -0.000001 0.000000 9.034633 -7.312031 85.259305 5.645969 -4.551223 102.271223 5.291418 -4.613864 97.835787 -0.000001 0.000001 -0.000000 3.497541 -6.772480 74.919949 4.985302 -4.645624 94.044670 5.427170 -4.593202 99.527194 -0.000002 0.000000 -0.000001 -42.698801 20.135679 9.725208 60.422544 4.469900 -9.998428 28.355138 -13.477123 -13.356473 5.136676 0.000009 0.000007 0.000000 -0.000000 -0.000001 -10.513411 -9.245982 -14.293293 66.128123 1.371497 -3.518198 10.828255 4.627064 12.596414 11.391988 0.000002 0.000003 -0.000002 -0.000002 -0.000000 
